<svg width="54" height="64" viewBox="0 0 54 64" fill="none" xmlns="http://www.w3.org/2000/svg">
<g clip-path="url(#clip0_20_183)">
<path d="M48.1564 7.04532L26.9529 0.0239868L5.74939 7.04532C4.15185 7.57443 2.7618 8.593 1.77668 9.95634C0.791555 11.3197 0.261457 12.9585 0.261678 14.64V32C0.261678 52.064 24.8176 63.144 25.8692 63.6053L26.8141 64.024L27.7963 63.6987C28.8533 63.3466 53.6441 54.872 53.6441 32V14.64C53.6443 12.9585 53.1142 11.3197 52.1291 9.95634C51.144 8.593 49.7539 7.57443 48.1564 7.04532ZM28.138 37.304C27.6714 37.7733 27.1161 38.1453 26.5044 38.3985C25.8927 38.6516 25.2368 38.7808 24.5747 38.7787H24.4866C23.811 38.7683 23.1446 38.6212 22.5275 38.3462C21.9105 38.0712 21.3557 37.674 20.8967 37.1787L14.7417 30.7787L18.5932 27.0933L24.5827 33.3333L38.4114 19.5173L42.1856 23.288L28.138 37.304Z" fill="#0D385C"/>
</g>
<defs>
<clipPath id="clip0_20_183">
<rect width="54" height="64" fill="white"/>
</clipPath>
</defs>
</svg>
