<svg width="631" height="630" viewBox="0 0 631 630" fill="none" xmlns="http://www.w3.org/2000/svg">
<g clip-path="url(#clip0_353_1801)">
<path d="M629.819 315.319C629.819 488.913 489.094 629.638 315.5 629.638C141.906 629.638 1.18042 488.913 1.18042 315.319C1.18042 141.725 141.906 1 315.5 1C489.094 1 629.819 141.725 629.819 315.319Z" stroke="white" stroke-width="1.5"/>
<path d="M581.328 304.294C581.369 305.872 581.397 307.454 581.411 309.038C581.214 309.04 581.018 309.041 580.821 309.043C580.828 309.834 580.831 310.626 580.831 311.419C580.831 312.211 580.828 313.002 580.821 313.792C581.018 313.794 581.214 313.795 581.411 313.797C581.397 315.382 581.369 316.963 581.328 318.542C581.131 318.537 580.934 318.532 580.737 318.527C580.695 320.101 580.64 321.672 580.572 323.24C580.769 323.248 580.965 323.257 581.162 323.265C581.093 324.847 581.009 326.424 580.911 327.998C580.715 327.986 580.519 327.974 580.322 327.962C580.225 329.539 580.114 331.113 579.99 332.683C580.186 332.698 580.382 332.713 580.578 332.728C580.454 334.302 580.315 335.871 580.161 337.437C579.966 337.418 579.771 337.398 579.575 337.379C579.422 338.951 579.254 340.521 579.074 342.085C579.27 342.108 579.466 342.13 579.661 342.153C579.48 343.724 579.285 345.293 579.076 346.856C578.881 346.83 578.686 346.804 578.491 346.779C578.282 348.337 578.061 349.893 577.825 351.445C578.02 351.475 578.214 351.504 578.409 351.534C578.171 353.099 577.919 354.663 577.655 356.22C577.461 356.187 577.267 356.154 577.073 356.121C576.809 357.676 576.531 359.227 576.239 360.773C576.433 360.81 576.626 360.846 576.82 360.882C576.527 362.433 576.221 363.979 575.901 365.52C575.709 365.48 575.516 365.441 575.323 365.401C575.002 366.949 574.669 368.491 574.322 370.029C574.514 370.073 574.706 370.116 574.898 370.159C574.549 371.7 574.188 373.236 573.813 374.766C573.622 374.72 573.43 374.673 573.239 374.626C572.864 376.158 572.476 377.683 572.075 379.203C572.265 379.254 572.454 379.304 572.644 379.354C572.24 380.884 571.824 382.408 571.393 383.928C571.204 383.874 571.014 383.821 570.825 383.767C570.395 385.283 569.953 386.793 569.496 388.298C569.685 388.355 569.874 388.412 570.062 388.469C569.603 389.982 569.131 391.489 568.647 392.991C568.46 392.93 568.273 392.87 568.085 392.809C567.6 394.31 567.103 395.807 566.591 397.296C566.778 397.36 566.964 397.424 567.151 397.487C566.639 398.981 566.114 400.468 565.576 401.948C565.391 401.881 565.207 401.814 565.022 401.748C564.484 403.23 563.932 404.708 563.367 406.179C563.551 406.249 563.736 406.32 563.92 406.391C563.354 407.867 562.775 409.335 562.183 410.799C562.001 410.725 561.818 410.651 561.636 410.577C561.046 412.037 560.444 413.49 559.828 414.938C560.01 415.015 560.19 415.092 560.371 415.169C559.752 416.624 559.121 418.074 558.477 419.515C558.297 419.435 558.117 419.355 557.937 419.275C557.294 420.715 556.64 422.146 555.972 423.572C556.15 423.655 556.328 423.739 556.507 423.823C555.836 425.253 555.154 426.676 554.46 428.092C554.283 428.006 554.107 427.919 553.93 427.832C553.236 429.249 552.529 430.658 551.81 432.059C551.985 432.149 552.161 432.239 552.336 432.329C551.615 433.734 550.882 435.131 550.138 436.521C549.964 436.428 549.791 436.336 549.618 436.243C548.872 437.633 548.115 439.015 547.348 440.39C547.52 440.486 547.692 440.582 547.864 440.678C547.092 442.057 546.309 443.428 545.515 444.792C545.345 444.693 545.175 444.594 545.005 444.495C544.212 445.856 543.407 447.21 542.591 448.554C542.759 448.657 542.928 448.759 543.096 448.862C542.276 450.213 541.444 451.555 540.601 452.89C540.434 452.785 540.268 452.68 540.102 452.575C539.261 453.908 538.407 455.232 537.543 456.549C537.707 456.656 537.872 456.765 538.036 456.873C537.171 458.194 536.293 459.505 535.403 460.807C535.24 460.697 535.078 460.586 534.915 460.476C534.027 461.777 533.126 463.07 532.215 464.356C532.375 464.47 532.536 464.584 532.696 464.698C531.783 465.986 530.86 467.265 529.923 468.536C529.765 468.42 529.607 468.303 529.448 468.186C528.513 469.456 527.569 470.716 526.613 471.968C526.77 472.087 526.926 472.207 527.082 472.326C526.124 473.582 525.154 474.829 524.173 476.067C524.019 475.944 523.864 475.821 523.71 475.699C522.732 476.934 521.743 478.159 520.743 479.377C520.895 479.501 521.047 479.626 521.2 479.751C520.197 480.971 519.185 482.183 518.16 483.385C518.01 483.257 517.86 483.129 517.71 483.001C516.689 484.202 515.656 485.391 514.614 486.573C514.762 486.703 514.91 486.833 515.057 486.963C514.012 488.147 512.956 489.321 511.89 490.486C511.745 490.353 511.6 490.22 511.455 490.087C510.392 491.249 509.317 492.402 508.233 493.546C508.376 493.681 508.519 493.816 508.662 493.952C507.576 495.098 506.479 496.234 505.372 497.36C505.232 497.222 505.091 497.084 504.95 496.946C503.847 498.071 502.733 499.184 501.609 500.288C501.747 500.428 501.884 500.569 502.022 500.71C500.896 501.816 499.761 502.913 498.614 503.999C498.479 503.856 498.344 503.713 498.209 503.57C497.065 504.654 495.912 505.728 494.75 506.793C494.882 506.938 495.015 507.082 495.148 507.227C493.984 508.294 492.809 509.349 491.625 510.393C491.495 510.246 491.365 510.098 491.235 509.951C490.054 510.994 488.864 512.027 487.664 513.047C487.792 513.197 487.919 513.347 488.047 513.497C486.845 514.522 485.633 515.534 484.413 516.537C484.288 516.385 484.163 516.233 484.038 516.08C482.823 517.08 481.596 518.069 480.362 519.047C480.485 519.202 480.607 519.356 480.729 519.511C479.491 520.491 478.245 521.461 476.989 522.419C476.87 522.263 476.75 522.107 476.63 521.951C475.379 522.906 474.119 523.851 472.849 524.786C472.966 524.944 473.082 525.103 473.199 525.261C471.928 526.197 470.649 527.121 469.361 528.034C469.247 527.873 469.133 527.713 469.019 527.552C467.734 528.464 466.439 529.364 465.138 530.252C465.248 530.415 465.359 530.578 465.47 530.741C464.167 531.63 462.856 532.509 461.535 533.374C461.427 533.21 461.319 533.045 461.211 532.88C459.894 533.745 458.571 534.598 457.237 535.439C457.342 535.606 457.448 535.772 457.553 535.938C456.218 536.782 454.875 537.613 453.524 538.434C453.421 538.265 453.319 538.097 453.217 537.929C451.873 538.745 450.518 539.55 449.157 540.342C449.256 540.512 449.355 540.683 449.454 540.853C448.091 541.647 446.718 542.429 445.339 543.2C445.244 543.028 445.148 542.857 445.052 542.686C443.677 543.453 442.296 544.209 440.906 544.955C440.998 545.128 441.091 545.302 441.183 545.475C439.793 546.219 438.397 546.953 436.991 547.673C436.901 547.498 436.811 547.322 436.721 547.147C435.32 547.866 433.911 548.573 432.495 549.268C432.581 549.444 432.668 549.621 432.755 549.797C431.338 550.492 429.915 551.173 428.484 551.844C428.401 551.666 428.318 551.488 428.235 551.309C426.809 551.977 425.377 552.632 423.937 553.275C424.017 553.455 424.097 553.635 424.178 553.814C422.736 554.457 421.287 555.09 419.832 555.709C419.755 555.528 419.678 555.347 419.601 555.166C418.153 555.781 416.699 556.384 415.24 556.973C415.314 557.156 415.388 557.338 415.461 557.521C413.998 558.113 412.529 558.691 411.053 559.257C410.983 559.073 410.912 558.889 410.841 558.705C409.371 559.27 407.892 559.821 406.41 560.359C406.476 560.544 406.543 560.729 406.61 560.914C405.13 561.452 403.644 561.976 402.15 562.488C402.086 562.302 402.023 562.115 401.959 561.929C400.469 562.441 398.973 562.937 397.472 563.423C397.532 563.61 397.593 563.797 397.653 563.985C396.151 564.469 394.645 564.94 393.132 565.4C393.075 565.211 393.018 565.022 392.96 564.834C391.456 565.29 389.945 565.733 388.429 566.161C388.483 566.351 388.537 566.54 388.591 566.73C387.071 567.16 385.546 567.578 384.017 567.982C383.966 567.792 383.916 567.602 383.866 567.412C382.346 567.813 380.82 568.202 379.289 568.576C379.336 568.767 379.382 568.958 379.429 569.149C377.899 569.525 376.362 569.887 374.822 570.235C374.778 570.043 374.735 569.851 374.692 569.658C373.154 570.007 371.611 570.34 370.064 570.661C370.103 570.853 370.143 571.047 370.182 571.239C368.642 571.559 367.095 571.864 365.545 572.156C365.508 571.963 365.472 571.77 365.435 571.576C363.889 571.868 362.339 572.146 360.784 572.41C360.817 572.605 360.849 572.799 360.882 572.993C359.325 573.257 357.763 573.509 356.196 573.747C356.167 573.552 356.137 573.357 356.108 573.163C354.556 573.398 353.001 573.619 351.441 573.828C351.467 574.023 351.492 574.219 351.518 574.414C349.955 574.622 348.388 574.817 346.816 574.998C346.793 574.803 346.771 574.608 346.748 574.412C345.184 574.592 343.615 574.759 342.041 574.911C342.061 575.107 342.08 575.303 342.1 575.499C340.534 575.651 338.965 575.791 337.392 575.916C337.377 575.72 337.361 575.523 337.346 575.327C335.776 575.452 334.203 575.563 332.625 575.66C332.637 575.856 332.65 576.052 332.662 576.249C331.088 576.347 329.51 576.43 327.928 576.499C327.919 576.303 327.911 576.107 327.903 575.91C326.334 575.978 324.763 576.033 323.189 576.074C323.194 576.271 323.199 576.468 323.204 576.665C321.626 576.707 320.045 576.734 318.46 576.748C318.458 576.551 318.457 576.354 318.456 576.157C317.665 576.164 316.874 576.169 316.081 576.169C315.681 576.169 315.283 576.168 314.884 576.166C314.492 576.165 314.099 576.162 313.706 576.157C313.705 576.354 313.703 576.551 313.702 576.748C312.117 576.734 310.534 576.707 308.956 576.665C308.962 576.468 308.967 576.271 308.973 576.074C307.398 576.033 305.826 575.978 304.259 575.91C304.25 576.107 304.241 576.303 304.233 576.499C302.652 576.43 301.074 576.347 299.5 576.249C299.512 576.052 299.523 575.856 299.535 575.66C297.959 575.563 296.387 575.452 294.817 575.327C294.801 575.523 294.785 575.72 294.769 575.916C293.197 575.791 291.629 575.651 290.063 575.499C290.082 575.303 290.101 575.107 290.12 574.911C288.547 574.759 286.978 574.592 285.412 574.412C285.39 574.608 285.368 574.803 285.346 574.998C283.773 574.817 282.206 574.622 280.644 574.414C280.669 574.219 280.695 574.023 280.721 573.828C279.161 573.619 277.606 573.398 276.054 573.163C276.025 573.357 275.995 573.552 275.966 573.747C274.399 573.509 272.837 573.257 271.278 572.993C271.311 572.799 271.344 572.605 271.378 572.41C269.822 572.146 268.271 571.868 266.726 571.576C266.69 571.77 266.653 571.963 266.617 572.156C265.065 571.864 263.52 571.559 261.978 571.239C262.018 571.047 262.058 570.853 262.098 570.661C260.55 570.34 259.009 570.007 257.47 569.658C257.427 569.851 257.383 570.043 257.34 570.235C255.799 569.887 254.263 569.525 252.731 569.149C252.778 568.958 252.826 568.767 252.873 568.576C251.341 568.202 249.816 567.813 248.296 567.412C248.245 567.602 248.195 567.792 248.145 567.982C246.615 567.578 245.09 567.16 243.571 566.73C243.624 566.54 243.678 566.351 243.732 566.161C242.216 565.733 240.707 565.29 239.202 564.834C239.145 565.022 239.088 565.211 239.03 565.4C237.517 564.94 236.01 564.469 234.509 563.985C234.569 563.797 234.629 563.61 234.69 563.423C233.188 562.937 231.692 562.441 230.203 561.929C230.139 562.115 230.075 562.302 230.011 562.488C228.518 561.976 227.031 561.452 225.55 560.914C225.617 560.729 225.685 560.544 225.752 560.359C224.268 559.821 222.791 559.27 221.319 558.705C221.249 558.889 221.179 559.073 221.109 559.257C219.633 558.691 218.164 558.111 216.701 557.521C216.775 557.338 216.848 557.156 216.922 556.973C215.461 556.384 214.008 555.781 212.561 555.166C212.484 555.347 212.407 555.528 212.33 555.709C210.875 555.09 209.425 554.457 207.983 553.814C208.063 553.635 208.143 553.455 208.224 553.275C206.785 552.632 205.354 551.977 203.928 551.309C203.844 551.488 203.761 551.666 203.677 551.844C202.247 551.173 200.824 550.492 199.408 549.797C199.494 549.621 199.581 549.444 199.668 549.268C198.251 548.573 196.842 547.866 195.44 547.147C195.351 547.322 195.261 547.498 195.171 547.673C193.766 546.953 192.368 546.219 190.977 545.475C191.07 545.302 191.163 545.128 191.257 544.955C189.867 544.209 188.485 543.453 187.11 542.686C187.013 542.857 186.917 543.028 186.821 543.2C185.442 542.429 184.071 541.647 182.706 540.853C182.805 540.683 182.904 540.512 183.003 540.342C181.642 539.55 180.29 538.745 178.944 537.929C178.842 538.097 178.74 538.265 178.638 538.434C177.287 537.613 175.944 536.782 174.608 535.938C174.713 535.772 174.818 535.606 174.923 535.439C173.591 534.598 172.266 533.745 170.95 532.88C170.842 533.045 170.734 533.21 170.626 533.374C169.306 532.509 167.995 531.63 166.69 530.741C166.801 530.578 166.913 530.415 167.024 530.252C165.722 529.363 164.428 528.464 163.143 527.552C163.029 527.713 162.915 527.873 162.801 528.034C161.513 527.121 160.232 526.197 158.963 525.261C159.079 525.103 159.196 524.944 159.313 524.786C158.043 523.851 156.783 522.906 155.531 521.951C155.411 522.107 155.292 522.263 155.172 522.419C153.917 521.461 152.671 520.491 151.433 519.511C151.555 519.356 151.678 519.202 151.8 519.047C150.565 518.069 149.339 517.08 148.123 516.08C147.998 516.233 147.873 516.385 147.748 516.537C146.527 515.534 145.317 514.521 144.114 513.497C144.241 513.347 144.369 513.197 144.496 513.047C143.297 512.027 142.108 510.994 140.927 509.951C140.796 510.098 140.666 510.246 140.535 510.393C139.353 509.349 138.178 508.294 137.013 507.227C137.146 507.082 137.279 506.937 137.412 506.792C136.249 505.728 135.096 504.654 133.953 503.57C133.817 503.713 133.682 503.856 133.547 503.999C132.401 502.913 131.265 501.816 130.138 500.71C130.276 500.569 130.414 500.428 130.552 500.288C129.428 499.184 128.315 498.071 127.211 496.946C127.07 497.084 126.93 497.222 126.789 497.36C125.683 496.234 124.586 495.098 123.5 493.952C123.643 493.816 123.786 493.681 123.928 493.546C122.844 492.402 121.771 491.249 120.707 490.087C120.562 490.22 120.416 490.353 120.271 490.486C119.206 489.321 118.15 488.147 117.105 486.963C117.253 486.833 117.4 486.703 117.547 486.573C116.505 485.391 115.473 484.202 114.451 483.001C114.301 483.129 114.152 483.257 114.002 483.385C112.978 482.183 111.964 480.971 110.961 479.751C111.113 479.626 111.266 479.501 111.418 479.377C110.418 478.159 109.429 476.934 108.451 475.699C108.297 475.821 108.142 475.944 107.988 476.067C107.007 474.829 106.038 473.582 105.079 472.326C105.235 472.207 105.392 472.087 105.548 471.968C104.592 470.716 103.647 469.456 102.713 468.186C102.555 468.303 102.396 468.42 102.238 468.536C101.302 467.265 100.378 465.986 99.4646 464.698C99.6252 464.584 99.7856 464.47 99.9462 464.356C99.035 463.07 98.1354 461.777 97.2468 460.476C97.0842 460.586 96.9217 460.697 96.7591 460.807C95.8696 459.505 94.9912 458.194 94.1246 456.873C94.2891 456.765 94.4537 456.656 94.6182 456.549C93.7538 455.232 92.9007 453.908 92.0593 452.575C91.8929 452.68 91.7266 452.785 91.5602 452.89C90.717 451.555 89.8853 450.213 89.0654 448.862C89.2336 448.759 89.4017 448.657 89.5699 448.554C88.7537 447.21 87.9497 445.856 87.1568 444.495C86.9868 444.594 86.8163 444.693 86.6463 444.792C85.8518 443.428 85.0687 442.057 84.298 440.678C84.4698 440.582 84.6415 440.486 84.8133 440.39C84.0449 439.015 83.2885 437.632 82.5441 436.243C82.3706 436.336 82.1976 436.428 82.0241 436.521C81.2795 435.131 80.5469 433.734 79.8264 432.329C80.0016 432.239 80.1761 432.149 80.3512 432.059C79.6324 430.657 78.9256 429.249 78.2312 427.832C78.0545 427.919 77.8778 428.006 77.7011 428.092C77.0066 426.676 76.3246 425.253 75.6547 423.823C75.833 423.739 76.0114 423.655 76.1896 423.572C75.5221 422.146 74.8671 420.715 74.2243 419.275C74.0446 419.355 73.8644 419.435 73.6847 419.515C73.0406 418.074 72.4093 416.624 71.7903 415.169C71.9714 415.092 72.1522 415.015 72.3333 414.938C71.7179 413.49 71.1155 412.037 70.5254 410.577C70.3429 410.651 70.1601 410.725 69.9776 410.799C69.3863 409.335 68.8077 407.867 68.242 406.391C68.4257 406.32 68.6093 406.249 68.793 406.179C68.229 404.708 67.6782 403.23 67.1398 401.748C66.9547 401.814 66.7696 401.881 66.5846 401.948C66.0471 400.468 65.5226 398.981 65.011 397.487C65.1972 397.424 65.3834 397.36 65.5695 397.296C65.0589 395.807 64.5608 394.31 64.0763 392.809C63.889 392.87 63.7017 392.93 63.5144 392.991C63.0298 391.489 62.5586 389.982 62.1002 388.469C62.2885 388.412 62.4765 388.355 62.6648 388.298C62.2089 386.793 61.7668 385.283 61.337 383.767C61.1477 383.821 60.9584 383.874 60.7691 383.928C60.3384 382.408 59.921 380.884 59.5169 379.354C59.7072 379.304 59.8973 379.254 60.0876 379.203C59.6861 377.682 59.2977 376.156 58.9226 374.626C58.7315 374.673 58.5404 374.72 58.3492 374.766C57.9743 373.235 57.6122 371.7 57.2639 370.159C57.4559 370.116 57.648 370.073 57.84 370.029C57.4924 368.491 57.1584 366.949 56.8378 365.401C56.6451 365.441 56.4524 365.48 56.2597 365.52C55.9404 363.979 55.6342 362.433 55.3418 360.882C55.5353 360.846 55.7293 360.81 55.9227 360.773C55.6311 359.227 55.353 357.676 55.0886 356.121C54.8946 356.154 54.7004 356.187 54.5064 356.22C54.2416 354.663 53.9903 353.099 53.7527 351.534C53.9473 351.504 54.1417 351.475 54.3362 351.445C54.101 349.893 53.8792 348.337 53.671 346.779C53.4759 346.804 53.2812 346.83 53.0861 346.856C52.8774 345.293 52.6818 343.724 52.5006 342.153C52.6961 342.13 52.892 342.108 53.0875 342.085C52.907 340.521 52.7402 338.951 52.587 337.379C52.3911 337.398 52.1954 337.418 51.9995 337.437C51.8472 335.871 51.7084 334.302 51.5835 332.728C51.7796 332.713 51.9755 332.698 52.1717 332.683C52.0469 331.113 51.936 329.539 51.8387 327.962C51.6423 327.975 51.4462 327.987 51.2498 327.999C51.1527 326.424 51.0695 324.847 50.9999 323.265C51.1966 323.257 51.3929 323.248 51.5895 323.24C51.5207 321.672 51.4656 320.101 51.4241 318.527C51.2273 318.532 51.0305 318.537 50.8338 318.542C50.7922 316.963 50.7646 315.382 50.7507 313.797C50.9475 313.795 51.1442 313.794 51.341 313.792C51.3341 313.002 51.3302 312.211 51.3302 311.419C51.3302 310.626 51.3341 309.834 51.341 309.043C51.1442 309.041 50.9475 309.04 50.7507 309.038C50.7646 307.454 50.7922 305.872 50.8338 304.294C51.0305 304.3 51.2273 304.305 51.4241 304.31C51.4656 302.735 51.5207 301.164 51.5895 299.597C51.3929 299.588 51.1966 299.579 50.9999 299.571C51.0695 297.99 51.1527 296.411 51.2498 294.837C51.4462 294.849 51.6423 294.862 51.8387 294.874C51.936 293.297 52.0469 291.724 52.1717 290.154C51.9755 290.138 51.7796 290.122 51.5835 290.107C51.7084 288.534 51.8472 286.966 51.9995 285.4C52.1954 285.419 52.3911 285.438 52.587 285.457C52.7402 283.884 52.907 282.316 53.0875 280.75C52.892 280.728 52.6961 280.706 52.5006 280.683C52.6818 279.111 52.8774 277.544 53.0861 275.98C53.2812 276.006 53.4759 276.032 53.671 276.059C53.8792 274.498 54.1011 272.942 54.3362 271.392C54.1417 271.362 53.9473 271.333 53.7527 271.303C53.9903 269.736 54.2416 268.173 54.5064 266.616C54.7004 266.649 54.8946 266.682 55.0886 266.715C55.353 265.159 55.6312 263.609 55.9227 262.064C55.7293 262.027 55.5353 261.991 55.3418 261.954C55.6342 260.402 55.9404 258.857 56.2597 257.315C56.4524 257.355 56.6451 257.395 56.8378 257.435C57.1584 255.888 57.4926 254.346 57.84 252.808C57.648 252.765 57.4559 252.721 57.2639 252.678C57.6122 251.137 57.9743 249.6 58.3492 248.069C58.5404 248.116 58.7315 248.163 58.9226 248.21C59.2976 246.679 59.6861 245.153 60.0876 243.633C59.8973 243.583 59.7072 243.533 59.5169 243.482C59.9211 241.953 60.3384 240.427 60.7691 238.908C60.9584 238.962 61.1477 239.015 61.337 239.069C61.7668 237.553 62.2089 236.043 62.6648 234.539C62.4765 234.482 62.2885 234.425 62.1002 234.368C62.5586 232.855 63.0298 231.347 63.5144 229.846C63.7017 229.907 63.889 229.967 64.0763 230.027C64.561 228.525 65.0589 227.03 65.5695 225.541C65.3834 225.477 65.1972 225.412 65.011 225.348C65.5226 223.856 66.0473 222.369 66.5846 220.888C66.7696 220.955 66.9547 221.022 67.1398 221.089C67.6782 219.605 68.229 218.128 68.793 216.656C68.6093 216.586 68.4257 216.516 68.242 216.446C68.8077 214.971 69.3865 213.5 69.9776 212.038C70.1601 212.112 70.3429 212.186 70.5254 212.26C71.1155 210.799 71.7179 209.345 72.3333 207.898C72.1522 207.821 71.9714 207.744 71.7903 207.667C72.4093 206.211 73.0406 204.763 73.6847 203.32C73.8644 203.4 74.0446 203.481 74.2243 203.561C74.8669 202.123 75.5221 200.69 76.1896 199.265C76.0114 199.182 75.833 199.098 75.6547 199.015C76.3246 197.584 77.0066 196.161 77.7011 194.745C77.8778 194.832 78.0545 194.918 78.2312 195.005C78.9257 193.589 79.6324 192.179 80.3512 190.778C80.1761 190.688 80.0016 190.598 79.8264 190.508C80.5469 189.103 81.2794 187.704 82.0241 186.314C82.1975 186.408 82.3707 186.501 82.5441 186.594C83.2887 185.204 84.045 183.822 84.8133 182.447C84.6415 182.351 84.4698 182.255 84.298 182.158C85.0688 180.779 85.8516 179.407 86.6463 178.043C86.8163 178.142 86.9868 178.242 87.1568 178.341C87.9497 176.98 88.7543 175.627 89.5706 174.281C89.4023 174.18 89.2337 174.077 89.0654 173.975C89.8853 172.624 90.7169 171.281 91.5602 169.945C91.7266 170.05 91.8929 170.155 92.0593 170.26C92.9007 168.928 93.7539 167.603 94.6182 166.286C94.4537 166.179 94.2891 166.071 94.1246 165.963C94.9912 164.643 95.8696 163.332 96.7591 162.028C96.9217 162.139 97.0842 162.25 97.2468 162.361C98.1354 161.058 99.0351 159.765 99.9462 158.48C99.7856 158.366 99.6252 158.252 99.4646 158.138C100.378 156.851 101.302 155.57 102.238 154.299C102.396 154.415 102.555 154.532 102.713 154.649C103.647 153.38 104.592 152.119 105.548 150.867C105.392 150.748 105.236 150.629 105.08 150.509C106.038 149.255 107.007 148.008 107.988 146.771C108.142 146.893 108.297 147.015 108.451 147.137C109.429 145.902 110.418 144.676 111.418 143.459C111.266 143.334 111.113 143.209 110.961 143.084C111.964 141.864 112.978 140.653 114.002 139.451C114.152 139.579 114.301 139.706 114.451 139.834C115.473 138.635 116.505 137.445 117.547 136.264C117.4 136.134 117.253 136.003 117.105 135.873C118.15 134.689 119.206 133.515 120.271 132.351C120.416 132.484 120.562 132.616 120.707 132.749C121.77 131.587 122.844 130.433 123.928 129.29C123.786 129.155 123.643 129.02 123.5 128.884C124.587 127.738 125.683 126.602 126.789 125.476C126.93 125.614 127.07 125.752 127.211 125.89C128.315 124.766 129.428 123.652 130.552 122.548C130.414 122.408 130.276 122.267 130.138 122.127C131.265 121.02 132.401 119.924 133.547 118.838C133.682 118.98 133.817 119.123 133.953 119.266C135.096 118.182 136.25 117.108 137.412 116.044C137.279 115.899 137.146 115.754 137.013 115.609C138.178 114.543 139.353 113.487 140.535 112.443C140.666 112.59 140.796 112.737 140.927 112.885C142.108 111.842 143.297 110.81 144.496 109.788C144.369 109.639 144.242 109.489 144.115 109.339C145.317 108.315 146.527 107.301 147.748 106.299C147.873 106.451 147.998 106.603 148.123 106.755C149.339 105.756 150.566 104.767 151.8 103.788C151.678 103.634 151.555 103.479 151.433 103.325C152.671 102.345 153.917 101.375 155.173 100.416C155.293 100.573 155.412 100.729 155.531 100.886C156.783 99.9297 158.043 98.9847 159.313 98.0505C159.196 97.892 159.079 97.7336 158.963 97.5751C160.234 96.6397 161.513 95.7152 162.801 94.802C162.915 94.9626 163.029 95.123 163.143 95.2836C164.428 94.3724 165.722 93.4728 167.024 92.5842C166.913 92.4216 166.801 92.2591 166.69 92.0965C167.995 91.207 169.306 90.3286 170.626 89.462C170.734 89.6265 170.842 89.7911 170.95 89.9556C172.266 89.0912 173.591 88.2381 174.923 87.3967C174.818 87.2303 174.713 87.064 174.608 86.8976C175.944 86.0544 177.287 85.2227 178.638 84.4028C178.74 84.571 178.843 84.7391 178.945 84.9073C180.29 84.0911 181.642 83.2871 183.003 82.4942C182.904 82.3242 182.806 82.1537 182.707 81.9837C184.071 81.189 185.442 80.4063 186.821 79.6354C186.917 79.8072 187.013 79.9789 187.11 80.1507C188.485 79.3823 189.867 78.6259 191.257 77.8815C191.163 77.708 191.07 77.535 190.977 77.3615C192.368 76.6169 193.766 75.8843 195.171 75.1639C195.261 75.339 195.351 75.5135 195.44 75.6886C196.842 74.9698 198.251 74.263 199.668 73.5686C199.581 73.3919 199.494 73.2152 199.408 73.0385C200.824 72.344 202.247 71.662 203.677 70.9921C203.761 71.1704 203.844 71.3488 203.928 71.527C205.354 70.8595 206.785 70.2045 208.224 69.5617C208.143 69.382 208.063 69.2018 207.983 69.0221C209.425 68.378 210.875 67.7467 212.33 67.1277C212.407 67.3088 212.484 67.4896 212.561 67.6707C214.008 67.0553 215.461 66.4529 216.922 65.8628C216.848 65.6803 216.775 65.4975 216.701 65.315C218.164 64.7237 219.633 64.1451 221.109 63.5794C221.179 63.7631 221.249 63.9467 221.319 64.1304C222.791 63.5664 224.268 63.0156 225.752 62.4772C225.685 62.2921 225.617 62.107 225.55 61.922C227.031 61.3845 228.518 60.86 230.012 60.3484C230.076 60.5346 230.139 60.7208 230.203 60.9069C231.692 60.3963 233.188 59.8982 234.69 59.4137C234.629 59.2264 234.569 59.0391 234.509 58.8518C236.01 58.3672 237.517 57.896 239.03 57.4376C239.088 57.6259 239.145 57.8139 239.202 58.0022C240.707 57.5463 242.217 57.1042 243.732 56.6744C243.678 56.4851 243.624 56.2958 243.571 56.1065C245.09 55.6758 246.615 55.2584 248.145 54.8543C248.195 55.0446 248.245 55.2347 248.296 55.425C249.816 55.0235 251.341 54.6351 252.873 54.26C252.826 54.0689 252.778 53.8778 252.731 53.6866C254.263 53.3117 255.799 52.9496 257.34 52.6013C257.383 52.7933 257.427 52.9854 257.47 53.1774C259.009 52.8298 260.55 52.4958 262.098 52.1752C262.058 51.9825 262.018 51.7898 261.978 51.5971C263.52 51.2778 265.066 50.9716 266.617 50.6793C266.653 50.8727 266.69 51.0667 266.726 51.2601C268.271 50.9686 269.822 50.6904 271.378 50.426C271.344 50.232 271.311 50.0378 271.278 49.8438C272.837 49.579 274.399 49.3277 275.966 49.0901C275.995 49.2847 276.025 49.4791 276.054 49.6736C277.606 49.4385 279.161 49.2166 280.721 49.0084C280.695 48.8133 280.669 48.6186 280.644 48.4235C282.206 48.215 283.773 48.0192 285.346 47.838C285.368 48.0335 285.39 48.2294 285.412 48.4249C286.978 48.2444 288.547 48.0776 290.12 47.9244C290.101 47.7285 290.082 47.5328 290.063 47.3369C291.629 47.1846 293.197 47.0458 294.769 46.9209C294.785 47.117 294.801 47.3129 294.817 47.5091C296.387 47.3843 297.959 47.2734 299.535 47.1761C299.523 46.9797 299.512 46.7836 299.5 46.5872C301.074 46.4901 302.652 46.4069 304.233 46.3373C304.241 46.534 304.25 46.7303 304.259 46.9269C305.826 46.8581 307.398 46.803 308.973 46.7615C308.967 46.5647 308.962 46.3679 308.956 46.1712C310.534 46.1296 312.117 46.102 313.701 46.0881C313.702 46.2849 313.704 46.4816 313.706 46.6784C314.497 46.6715 315.289 46.6676 316.081 46.6676C316.874 46.6676 317.665 46.6715 318.454 46.6784C318.456 46.4816 318.458 46.2849 318.46 46.0881C320.045 46.102 321.626 46.1296 323.204 46.1712C323.199 46.3679 323.194 46.5647 323.189 46.7615C324.763 46.803 326.334 46.8581 327.903 46.9269C327.911 46.7303 327.919 46.534 327.928 46.3373C329.51 46.4069 331.088 46.4901 332.662 46.5872C332.65 46.7836 332.637 46.9797 332.625 47.1761C334.203 47.2734 335.776 47.3843 337.346 47.5091C337.361 47.3129 337.377 47.117 337.392 46.9209C338.965 47.0458 340.534 47.1846 342.1 47.3369C342.08 47.5328 342.061 47.7285 342.041 47.9244C343.615 48.0776 345.184 48.2444 346.748 48.4249C346.771 48.2294 346.793 48.0335 346.816 47.838C348.388 48.0192 349.955 48.215 351.518 48.4235C351.492 48.6186 351.467 48.8133 351.441 49.0084C353.001 49.2166 354.556 49.4385 356.108 49.6736C356.137 49.4791 356.167 49.2847 356.196 49.0901C357.763 49.3277 359.325 49.579 360.882 49.8438C360.849 50.0379 360.817 50.2319 360.784 50.426C362.339 50.6904 363.889 50.9686 365.435 51.2601C365.472 51.0667 365.508 50.8727 365.545 50.6793C367.095 50.9716 368.642 51.2778 370.182 51.5971C370.143 51.7898 370.103 51.9825 370.064 52.1752C371.611 52.4958 373.154 52.83 374.692 53.1774C374.735 52.9855 374.778 52.7939 374.822 52.602C376.362 52.9503 377.899 53.3117 379.429 53.6866C379.382 53.8778 379.336 54.0689 379.289 54.26C380.82 54.635 382.346 55.0235 383.866 55.425C383.916 55.2347 383.966 55.0446 384.017 54.8543C385.546 55.2585 387.071 55.6758 388.591 56.1065C388.537 56.2958 388.483 56.4851 388.429 56.6744C389.945 57.1042 391.456 57.5463 392.96 58.0022C393.018 57.8139 393.075 57.6259 393.132 57.4376C394.645 57.896 396.151 58.3672 397.653 58.8518C397.593 59.0391 397.532 59.2264 397.472 59.4137C398.973 59.8984 400.469 60.3963 401.959 60.9069C402.023 60.7208 402.086 60.5346 402.15 60.3484C403.644 60.86 405.13 61.3847 406.61 61.922C406.543 62.107 406.476 62.2921 406.41 62.4772C407.894 63.0156 409.371 63.5664 410.841 64.1304C410.912 63.9467 410.983 63.7631 411.053 63.5794C412.529 64.1451 413.998 64.7239 415.461 65.315C415.388 65.4975 415.314 65.6803 415.24 65.8628C416.699 66.4529 418.153 67.0553 419.601 67.6707C419.678 67.4896 419.755 67.3088 419.832 67.1277C421.287 67.7468 422.736 68.378 424.178 69.0221C424.097 69.2018 424.017 69.382 423.937 69.5617C425.377 70.2043 426.809 70.8595 428.235 71.527C428.318 71.3488 428.401 71.1704 428.484 70.9921C429.915 71.662 431.338 72.344 432.755 73.0385C432.668 73.2152 432.581 73.3919 432.495 73.5686C433.911 74.2631 435.32 74.9703 436.721 75.6893C436.811 75.5141 436.901 75.339 436.991 75.1639C438.397 75.8843 439.793 76.6168 441.183 77.3615C441.091 77.535 440.998 77.708 440.906 77.8815C442.296 78.6259 443.677 79.3824 445.052 80.1507C445.148 79.9789 445.244 79.8072 445.339 79.6354C446.72 80.4063 448.091 81.189 449.454 81.9837C449.355 82.1537 449.256 82.3242 449.157 82.4942C450.518 83.2871 451.873 84.0917 453.217 84.908C453.319 84.7397 453.421 84.5711 453.524 84.4028C454.875 85.2227 456.218 86.0543 457.553 86.8976C457.448 87.064 457.343 87.2303 457.239 87.3967C458.571 88.2381 459.894 89.0913 461.211 89.9556C461.319 89.7911 461.427 89.6265 461.535 89.462C462.856 90.3286 464.167 91.207 465.47 92.0965C465.359 92.2591 465.248 92.4216 465.138 92.5842C466.439 93.4728 467.734 94.3725 469.019 95.2836C469.133 95.123 469.247 94.9626 469.361 94.802C470.649 95.7152 471.928 96.6397 473.199 97.5751C473.082 97.7336 472.966 97.892 472.849 98.0505C474.119 98.9846 475.379 99.9297 476.63 100.886C476.75 100.729 476.87 100.573 476.989 100.417C478.245 101.376 479.491 102.345 480.729 103.325C480.607 103.479 480.485 103.634 480.362 103.788C481.596 104.767 482.823 105.756 484.038 106.755C484.163 106.603 484.288 106.451 484.413 106.299C485.633 107.302 486.845 108.315 488.047 109.339C487.919 109.489 487.792 109.639 487.664 109.788C488.864 110.81 490.054 111.842 491.235 112.885C491.365 112.737 491.495 112.59 491.625 112.443C492.809 113.488 493.984 114.543 495.148 115.609C495.015 115.754 494.882 115.899 494.75 116.044C495.912 117.108 497.065 118.182 498.209 119.266C498.344 119.123 498.479 118.98 498.614 118.838C499.761 119.924 500.896 121.02 502.022 122.127C501.884 122.267 501.747 122.408 501.609 122.548C502.733 123.652 503.847 124.766 504.95 125.89C505.091 125.752 505.232 125.614 505.372 125.476C506.479 126.602 507.576 127.738 508.662 128.884C508.519 129.02 508.376 129.155 508.233 129.29C509.317 130.433 510.392 131.587 511.455 132.749C511.601 132.616 511.746 132.484 511.891 132.351C512.956 133.515 514.012 134.689 515.057 135.873C514.91 136.003 514.762 136.134 514.614 136.264C515.656 137.445 516.689 138.635 517.71 139.834C517.86 139.706 518.01 139.579 518.16 139.451C519.185 140.653 520.197 141.864 521.2 143.084C521.047 143.209 520.895 143.334 520.743 143.459C521.743 144.676 522.732 145.902 523.71 147.137C523.864 147.015 524.019 146.893 524.173 146.771C525.154 148.008 526.124 149.255 527.082 150.509C526.926 150.629 526.77 150.749 526.613 150.869C527.569 152.12 528.513 153.38 529.448 154.649C529.607 154.532 529.766 154.415 529.925 154.299C530.86 155.57 531.783 156.851 532.696 158.138C532.536 158.252 532.375 158.366 532.215 158.48C533.126 159.765 534.027 161.06 534.915 162.361C535.078 162.25 535.24 162.139 535.403 162.028C536.293 163.332 537.171 164.643 538.036 165.963C537.872 166.071 537.707 166.179 537.543 166.288C538.407 167.603 539.261 168.928 540.102 170.26C540.268 170.155 540.434 170.05 540.601 169.945C541.444 171.281 542.276 172.624 543.096 173.975C542.928 174.077 542.759 174.18 542.591 174.281C543.407 175.627 544.212 176.98 545.005 178.341C545.175 178.242 545.345 178.142 545.515 178.043C546.309 179.408 547.092 180.779 547.864 182.158C547.692 182.255 547.52 182.351 547.348 182.447C548.117 183.822 548.872 185.204 549.618 186.594C549.791 186.501 549.964 186.408 550.138 186.314C550.882 187.706 551.615 189.103 552.336 190.508C552.161 190.598 551.985 190.688 551.81 190.778C552.529 192.179 553.236 193.589 553.93 195.005C554.107 194.918 554.283 194.832 554.46 194.745C555.154 196.161 555.836 197.584 556.507 199.015C556.328 199.098 556.15 199.182 555.972 199.265C556.64 200.69 557.294 202.123 557.937 203.561C558.117 203.481 558.297 203.4 558.477 203.32C559.121 204.763 559.752 206.212 560.371 207.667C560.19 207.744 560.01 207.821 559.828 207.898C560.444 209.345 561.046 210.799 561.636 212.26C561.818 212.186 562.001 212.112 562.183 212.038C562.775 213.5 563.354 214.971 563.92 216.446C563.736 216.516 563.551 216.586 563.367 216.656C563.932 218.128 564.484 219.605 565.022 221.089C565.207 221.022 565.391 220.955 565.576 220.888C566.114 222.369 566.639 223.856 567.151 225.348C566.965 225.412 566.779 225.477 566.593 225.541C567.103 227.03 567.6 228.525 568.085 230.027C568.273 229.967 568.46 229.907 568.647 229.846C569.131 231.347 569.603 232.855 570.062 234.368C569.874 234.425 569.685 234.482 569.496 234.539C569.953 236.044 570.395 237.553 570.825 239.069C571.014 239.015 571.204 238.962 571.393 238.908C571.824 240.427 572.24 241.953 572.644 243.482C572.454 243.533 572.265 243.583 572.075 243.633C572.476 245.153 572.864 246.679 573.239 248.21C573.43 248.163 573.622 248.116 573.813 248.069C574.188 249.6 574.549 251.137 574.898 252.678C574.706 252.721 574.514 252.765 574.322 252.808C574.669 254.346 575.002 255.888 575.323 257.435C575.516 257.395 575.709 257.355 575.901 257.315C576.221 258.857 576.527 260.402 576.82 261.954C576.626 261.991 576.433 262.027 576.239 262.064C576.531 263.609 576.809 265.159 577.073 266.715C577.267 266.682 577.461 266.649 577.655 266.616C577.919 268.174 578.171 269.736 578.409 271.303C578.214 271.333 578.02 271.362 577.825 271.392C578.061 272.942 578.282 274.498 578.491 276.059C578.686 276.032 578.881 276.006 579.076 275.98C579.285 277.544 579.48 279.111 579.661 280.683C579.466 280.706 579.27 280.728 579.074 280.75C579.254 282.316 579.422 283.884 579.575 285.457C579.771 285.438 579.966 285.419 580.161 285.4C580.315 286.966 580.454 288.534 580.578 290.107C580.382 290.122 580.186 290.138 579.99 290.154C580.114 291.724 580.225 293.297 580.322 294.874C580.519 294.862 580.715 294.849 580.911 294.837C581.009 296.411 581.093 297.99 581.162 299.571C580.965 299.579 580.769 299.588 580.572 299.597C580.64 301.164 580.695 302.735 580.737 304.31C580.934 304.305 581.131 304.3 581.328 304.294Z" stroke="white" stroke-opacity="0.71" stroke-width="0.853704" stroke-dasharray="3.41 3.41"/>
<path d="M529.988 516.378C529.988 513.033 529.988 509.688 529.988 506.343C528.806 506.343 527.624 506.343 526.442 506.343C526.442 505.721 526.442 505.099 526.442 504.476C529.47 504.476 532.498 504.476 535.526 504.476C535.526 505.099 535.526 505.721 535.526 506.343C534.35 506.343 533.173 506.343 531.997 506.343C531.997 509.688 531.997 513.033 531.997 516.378C531.327 516.378 530.658 516.378 529.988 516.378Z" fill="white"/>
<path d="M313.863 608.754C313.863 604.786 313.863 600.819 313.863 596.852C316.431 596.852 318.998 596.852 321.567 596.852C321.567 597.474 321.567 598.097 321.567 598.719C319.665 598.719 317.764 598.719 315.862 598.719C315.862 599.698 315.862 600.676 315.862 601.654C317.433 601.654 319.004 601.654 320.575 601.654C320.575 602.277 320.575 602.9 320.575 603.523C319.004 603.523 317.433 603.523 315.862 603.523C315.862 604.644 315.862 605.766 315.862 606.887C317.764 606.887 319.665 606.887 321.567 606.887C321.567 607.509 321.567 608.131 321.567 608.754C318.998 608.754 316.431 608.754 313.863 608.754Z" fill="white"/>
<path d="M96.0751 504.624C95.3725 504.624 94.6699 504.624 93.9673 504.624C93.9673 506.01 93.9673 507.396 93.9673 508.782C93.2978 508.782 92.6282 508.782 91.9587 508.782C91.9587 504.814 91.9587 500.846 91.9587 496.879C93.5264 496.879 95.0943 496.879 96.662 496.879C97.3672 496.879 97.9817 496.967 98.505 497.144C99.0341 497.32 99.4721 497.576 99.8193 497.912C100.172 498.244 100.436 498.648 100.613 499.127C100.789 499.607 100.878 500.15 100.878 500.756C100.878 501.714 100.66 502.51 100.225 503.144C99.7892 503.772 99.1334 504.202 98.2572 504.433C99.194 505.883 100.131 507.332 101.067 508.782C100.299 508.782 99.5297 508.782 98.761 508.782C97.8655 507.396 96.9705 506.01 96.0751 504.624ZM93.9673 502.764C94.8599 502.764 95.7524 502.764 96.6451 502.764C97.3669 502.764 97.9181 502.593 98.2984 502.252C98.6786 501.905 98.8691 501.406 98.8691 500.756C98.8691 500.106 98.6786 499.61 98.2984 499.269C97.9181 498.921 97.3669 498.747 96.6451 498.747C95.7524 498.747 94.8599 498.747 93.9673 498.747C93.9673 500.086 93.9673 501.425 93.9673 502.764Z" fill="white"/>
<circle cx="315.5" cy="315.5" r="48.5" fill="white"/>
<path d="M295.056 109.224C293.544 109.224 292.153 108.981 290.884 108.496C289.614 107.992 288.513 107.292 287.58 106.396C286.646 105.481 285.918 104.417 285.396 103.204C284.873 101.991 284.612 100.656 284.612 99.2C284.612 97.744 284.873 96.4093 285.396 95.196C285.918 93.9827 286.646 92.928 287.58 92.032C288.532 91.1173 289.642 90.4173 290.912 89.932C292.181 89.428 293.581 89.176 295.112 89.176C296.661 89.176 298.08 89.428 299.368 89.932C300.656 90.436 301.748 91.192 302.644 92.2L300.908 93.936C300.105 93.152 299.228 92.5827 298.276 92.228C297.342 91.8547 296.325 91.668 295.224 91.668C294.104 91.668 293.058 91.8547 292.088 92.228C291.136 92.6013 290.305 93.124 289.596 93.796C288.905 94.468 288.364 95.2707 287.972 96.204C287.598 97.1187 287.412 98.1173 287.412 99.2C287.412 100.264 287.598 101.263 287.972 102.196C288.364 103.111 288.905 103.913 289.596 104.604C290.305 105.276 291.136 105.799 292.088 106.172C293.04 106.545 294.076 106.732 295.196 106.732C296.241 106.732 297.24 106.573 298.192 106.256C299.162 105.92 300.058 105.369 300.88 104.604L302.476 106.732C301.505 107.553 300.366 108.179 299.06 108.608C297.772 109.019 296.437 109.224 295.056 109.224ZM299.788 106.368V99.088H302.476V106.732L299.788 106.368ZM307.836 109V89.4H315.48C317.198 89.4 318.663 89.6707 319.876 90.212C321.09 90.7533 322.023 91.5373 322.676 92.564C323.33 93.5907 323.656 94.8133 323.656 96.232C323.656 97.6507 323.33 98.8733 322.676 99.9C322.023 100.908 321.09 101.692 319.876 102.252C318.663 102.793 317.198 103.064 315.48 103.064H309.376L310.636 101.748V109H307.836ZM310.636 102.028L309.376 100.628H315.396C317.188 100.628 318.542 100.245 319.456 99.48C320.39 98.7147 320.856 97.632 320.856 96.232C320.856 94.832 320.39 93.7493 319.456 92.984C318.542 92.2187 317.188 91.836 315.396 91.836H309.376L310.636 90.436V102.028ZM336.892 109.224C335.38 109.224 333.989 108.981 332.72 108.496C331.45 107.992 330.349 107.292 329.416 106.396C328.482 105.481 327.754 104.417 327.232 103.204C326.709 101.991 326.448 100.656 326.448 99.2C326.448 97.744 326.709 96.4093 327.232 95.196C327.754 93.9827 328.482 92.928 329.416 92.032C330.368 91.1173 331.478 90.4173 332.748 89.932C334.017 89.428 335.417 89.176 336.948 89.176C338.497 89.176 339.916 89.428 341.204 89.932C342.492 90.436 343.584 91.192 344.48 92.2L342.744 93.936C341.941 93.152 341.064 92.5827 340.112 92.228C339.178 91.8547 338.161 91.668 337.06 91.668C335.94 91.668 334.894 91.8547 333.924 92.228C332.972 92.6013 332.141 93.124 331.432 93.796C330.741 94.468 330.2 95.2707 329.808 96.204C329.434 97.1187 329.248 98.1173 329.248 99.2C329.248 100.264 329.434 101.263 329.808 102.196C330.2 103.111 330.741 103.913 331.432 104.604C332.141 105.276 332.972 105.799 333.924 106.172C334.876 106.545 335.912 106.732 337.032 106.732C338.077 106.732 339.076 106.573 340.028 106.256C340.998 105.92 341.894 105.369 342.716 104.604L344.312 106.732C343.341 107.553 342.202 108.179 340.896 108.608C339.608 109.019 338.273 109.224 336.892 109.224ZM341.624 106.368V99.088H344.312V106.732L341.624 106.368Z" fill="white"/>
<path d="M297.443 130.096C296.795 130.096 296.199 129.992 295.655 129.784C295.111 129.568 294.639 129.268 294.239 128.884C293.839 128.492 293.527 128.036 293.303 127.516C293.079 126.996 292.967 126.424 292.967 125.8C292.967 125.176 293.079 124.604 293.303 124.084C293.527 123.564 293.839 123.112 294.239 122.728C294.647 122.336 295.123 122.036 295.667 121.828C296.211 121.612 296.811 121.504 297.467 121.504C298.131 121.504 298.739 121.612 299.291 121.828C299.843 122.044 300.311 122.368 300.695 122.8L299.951 123.544C299.607 123.208 299.231 122.964 298.823 122.812C298.423 122.652 297.987 122.572 297.515 122.572C297.035 122.572 296.587 122.652 296.171 122.812C295.763 122.972 295.407 123.196 295.103 123.484C294.807 123.772 294.575 124.116 294.407 124.516C294.247 124.908 294.167 125.336 294.167 125.8C294.167 126.256 294.247 126.684 294.407 127.084C294.575 127.476 294.807 127.82 295.103 128.116C295.407 128.404 295.763 128.628 296.171 128.788C296.579 128.948 297.023 129.028 297.503 129.028C297.951 129.028 298.379 128.96 298.787 128.824C299.203 128.68 299.587 128.444 299.939 128.116L300.623 129.028C300.207 129.38 299.719 129.648 299.159 129.832C298.607 130.008 298.035 130.096 297.443 130.096ZM299.471 128.872V125.752H300.623V129.028L299.471 128.872ZM302.92 130V121.6H306.196C306.932 121.6 307.56 121.716 308.08 121.948C308.6 122.18 309 122.516 309.28 122.956C309.56 123.396 309.7 123.92 309.7 124.528C309.7 125.136 309.56 125.66 309.28 126.1C309 126.532 308.6 126.864 308.08 127.096C307.56 127.328 306.932 127.444 306.196 127.444H303.58L304.12 126.892V130H302.92ZM308.536 130L306.4 126.952H307.684L309.844 130H308.536ZM304.12 127.012L303.58 126.424H306.16C306.928 126.424 307.508 126.26 307.9 125.932C308.3 125.596 308.5 125.128 308.5 124.528C308.5 123.928 308.3 123.464 307.9 123.136C307.508 122.808 306.928 122.644 306.16 122.644H303.58L304.12 122.044V127.012ZM315.431 130.096C314.791 130.096 314.195 129.988 313.643 129.772C313.099 129.556 312.627 129.256 312.227 128.872C311.827 128.48 311.515 128.024 311.291 127.504C311.067 126.984 310.955 126.416 310.955 125.8C310.955 125.184 311.067 124.616 311.291 124.096C311.515 123.576 311.827 123.124 312.227 122.74C312.627 122.348 313.099 122.044 313.643 121.828C314.187 121.612 314.783 121.504 315.431 121.504C316.071 121.504 316.659 121.612 317.195 121.828C317.739 122.036 318.211 122.336 318.611 122.728C319.019 123.112 319.331 123.564 319.547 124.084C319.771 124.604 319.883 125.176 319.883 125.8C319.883 126.424 319.771 126.996 319.547 127.516C319.331 128.036 319.019 128.492 318.611 128.884C318.211 129.268 317.739 129.568 317.195 129.784C316.659 129.992 316.071 130.096 315.431 130.096ZM315.431 129.028C315.895 129.028 316.323 128.948 316.715 128.788C317.115 128.628 317.459 128.404 317.747 128.116C318.043 127.82 318.271 127.476 318.431 127.084C318.599 126.692 318.683 126.264 318.683 125.8C318.683 125.336 318.599 124.908 318.431 124.516C318.271 124.124 318.043 123.784 317.747 123.496C317.459 123.2 317.115 122.972 316.715 122.812C316.323 122.652 315.895 122.572 315.431 122.572C314.959 122.572 314.523 122.652 314.123 122.812C313.731 122.972 313.387 123.2 313.091 123.496C312.795 123.784 312.563 124.124 312.395 124.516C312.235 124.908 312.155 125.336 312.155 125.8C312.155 126.264 312.235 126.692 312.395 127.084C312.563 127.476 312.795 127.82 313.091 128.116C313.387 128.404 313.731 128.628 314.123 128.788C314.523 128.948 314.959 129.028 315.431 129.028ZM325.197 130.096C324.093 130.096 323.225 129.78 322.593 129.148C321.961 128.516 321.645 127.592 321.645 126.376V121.6H322.845V126.328C322.845 127.264 323.049 127.948 323.457 128.38C323.873 128.812 324.457 129.028 325.209 129.028C325.969 129.028 326.553 128.812 326.961 128.38C327.377 127.948 327.585 127.264 327.585 126.328V121.6H328.749V126.376C328.749 127.592 328.433 128.516 327.801 129.148C327.177 129.78 326.309 130.096 325.197 130.096ZM331.209 130V121.6H334.485C335.221 121.6 335.849 121.716 336.369 121.948C336.889 122.18 337.289 122.516 337.569 122.956C337.849 123.396 337.989 123.92 337.989 124.528C337.989 125.136 337.849 125.66 337.569 126.1C337.289 126.532 336.889 126.868 336.369 127.108C335.849 127.34 335.221 127.456 334.485 127.456H331.869L332.409 126.892V130H331.209ZM332.409 127.012L331.869 126.412H334.449C335.217 126.412 335.797 126.248 336.189 125.92C336.589 125.592 336.789 125.128 336.789 124.528C336.789 123.928 336.589 123.464 336.189 123.136C335.797 122.808 335.217 122.644 334.449 122.644H331.869L332.409 122.044V127.012Z" fill="white" fill-opacity="0.7"/>
<path d="M316 150L307.34 165L324.66 165L316 150ZM314.5 163.5L314.5 431L317.5 431L317.5 163.5L314.5 163.5Z" fill="white"/>
<path d="M197.333 316C197.333 317.473 198.527 318.667 200 318.667C201.473 318.667 202.667 317.473 202.667 316C202.667 314.527 201.473 313.333 200 313.333C198.527 313.333 197.333 314.527 197.333 316ZM430.333 316C430.333 317.473 431.527 318.667 433 318.667C434.473 318.667 435.667 317.473 435.667 316C435.667 314.527 434.473 313.333 433 313.333C431.527 313.333 430.333 314.527 430.333 316ZM200 316.5H433V315.5H200V316.5Z" fill="white"/>
</g>
<defs>
<clipPath id="clip0_353_1801">
<rect width="631" height="630" fill="white"/>
</clipPath>
</defs>
</svg>
