<svg width="28" height="27" viewBox="0 0 28 27" fill="none" xmlns="http://www.w3.org/2000/svg">
<path fill-rule="evenodd" clip-rule="evenodd" d="M14.25 0C21.7008 0 27.75 5.95057 27.75 13.28C27.75 20.6094 21.7008 26.56 14.25 26.56C6.79916 26.56 0.75 20.6094 0.75 13.28C0.75 5.95057 6.79916 0 14.25 0ZM14.25 4.97999C11.9585 4.97999 11.6712 4.98954 10.7712 5.02995C9.87315 5.07026 9.2598 5.21058 8.72307 5.41574C8.16825 5.62786 7.6977 5.91167 7.22863 6.37309C6.75956 6.83452 6.47105 7.2974 6.25542 7.84318C6.04685 8.37111 5.90426 8.97447 5.86323 9.8579C5.8222 10.7432 5.8125 11.0259 5.8125 13.28C5.8125 15.5341 5.8222 15.8168 5.86323 16.7021C5.90426 17.5855 6.04685 18.1889 6.25542 18.7168C6.47105 19.2626 6.75956 19.7254 7.22863 20.1869C7.6977 20.6483 8.16825 20.9322 8.72307 21.1443C9.2598 21.3494 9.87315 21.4897 10.7712 21.53C11.6712 21.5704 11.9585 21.58 14.25 21.58C16.5415 21.58 16.8288 21.5704 17.7288 21.53C18.6268 21.4897 19.2402 21.3494 19.7769 21.1443C20.3317 20.9322 20.8022 20.6483 21.2714 20.1869C21.7404 19.7254 22.029 19.2626 22.2446 18.7168C22.4531 18.1889 22.5957 17.5855 22.6367 16.7021C22.6778 15.8168 22.6875 15.5341 22.6875 13.28C22.6875 11.0259 22.6778 10.7432 22.6367 9.8579C22.5957 8.97447 22.4531 8.37111 22.2446 7.84318C22.029 7.2974 21.7404 6.83452 21.2714 6.37309C20.8022 5.91167 20.3317 5.62786 19.7769 5.41574C19.2402 5.21058 18.6268 5.07026 17.7288 5.02995C16.8288 4.98954 16.5415 4.97999 14.25 4.97999ZM14.25 6.4755C16.5029 6.4755 16.7698 6.48395 17.6595 6.52389C18.4821 6.56083 18.9289 6.69602 19.2262 6.80967C19.62 6.96021 19.9011 7.14012 20.1963 7.43056C20.4916 7.72096 20.6745 7.99751 20.8275 8.38491C20.943 8.67738 21.0805 9.11681 21.118 9.92606C21.1586 10.8013 21.1672 11.0638 21.1672 13.28C21.1672 15.4962 21.1586 15.7587 21.118 16.6339C21.0805 17.4432 20.943 17.8826 20.8275 18.1751C20.6745 18.5625 20.4916 18.839 20.1963 19.1294C19.9011 19.4199 19.62 19.5997 19.2262 19.7503C18.9289 19.8639 18.4821 19.9992 17.6595 20.0361C16.7699 20.076 16.5031 20.0845 14.25 20.0845C11.9969 20.0845 11.7301 20.076 10.8405 20.0361C10.0179 19.9992 9.57114 19.8639 9.27383 19.7503C8.87995 19.5997 8.59888 19.4199 8.30362 19.1294C8.00836 18.839 7.82553 18.5625 7.67249 18.1751C7.55695 17.8826 7.41947 17.4432 7.38193 16.6339C7.34132 15.7587 7.33278 15.4962 7.33278 13.28C7.33278 11.0638 7.34132 10.8013 7.38193 9.92606C7.41947 9.11681 7.55695 8.67738 7.67249 8.38491C7.82553 7.99751 8.00836 7.72096 8.30362 7.43056C8.59888 7.14012 8.87995 6.96021 9.27383 6.80967C9.57114 6.69602 10.0179 6.56083 10.8405 6.52389C11.7302 6.48395 11.9971 6.4755 14.25 6.4755ZM14.25 9.01783C11.8571 9.01783 9.91724 10.9261 9.91724 13.28C9.91724 15.6339 11.8571 17.5421 14.25 17.5421C16.6429 17.5421 18.5828 15.6339 18.5828 13.28C18.5828 10.9261 16.6429 9.01783 14.25 9.01783ZM14.25 16.0466C12.6967 16.0466 11.4375 14.808 11.4375 13.28C11.4375 11.752 12.6967 10.5133 14.25 10.5133C15.8033 10.5133 17.0625 11.752 17.0625 13.28C17.0625 14.808 15.8033 16.0466 14.25 16.0466ZM19.7665 8.84945C19.7665 9.39953 19.3131 9.84539 18.7539 9.84539C18.1948 9.84539 17.7415 9.39953 17.7415 8.84945C17.7415 8.29937 18.1948 7.85345 18.7539 7.85345C19.3131 7.85345 19.7665 8.29937 19.7665 8.84945Z" fill="#0E304E"/>
</svg>
