<svg width="27" height="27" viewBox="0 0 27 27" fill="none" xmlns="http://www.w3.org/2000/svg">
<path d="M13.2408 0C5.92809 0 0 5.83148 0 13.025C0 20.2185 5.92809 26.05 13.2408 26.05C20.5535 26.05 26.4816 20.2185 26.4816 13.025C26.4816 5.83148 20.5535 0 13.2408 0ZM20.1228 8.23912L17.7711 19.2831C17.7427 19.4167 17.6806 19.5411 17.5905 19.6449C17.5004 19.7487 17.3853 19.8285 17.2556 19.8771C17.126 19.9257 16.986 19.9415 16.8485 19.923C16.7111 19.9045 16.5805 19.8523 16.4689 19.7712L13.0483 17.2852L10.9759 19.2084C10.9488 19.2336 10.9168 19.2532 10.8819 19.2661C10.847 19.279 10.8098 19.2849 10.7725 19.2835C10.7353 19.2821 10.6987 19.2734 10.6648 19.258C10.631 19.2425 10.6007 19.2206 10.5756 19.1934L10.531 19.1453L10.8911 15.7173L17.3814 9.88403C17.4135 9.85523 17.4334 9.81565 17.4373 9.77308C17.4412 9.73052 17.4287 9.68807 17.4024 9.6541C17.376 9.62014 17.3376 9.59713 17.2949 9.58962C17.2521 9.5821 17.208 9.59063 17.1713 9.61351L8.87107 14.7813L5.29631 13.6003C5.20126 13.5689 5.11842 13.5093 5.05915 13.4297C4.99988 13.3502 4.96709 13.2545 4.96528 13.1559C4.96347 13.0573 4.99272 12.9605 5.04903 12.8789C5.10533 12.7973 5.18593 12.7348 5.27976 12.7L19.2664 7.51705C19.3743 7.47711 19.4911 7.46641 19.6046 7.48608C19.7181 7.50575 19.8242 7.55506 19.9117 7.62885C19.9993 7.70265 20.065 7.79822 20.1022 7.90557C20.1393 8.01293 20.1464 8.12813 20.1228 8.23912Z" fill="#0E304E"/>
</svg>
