<svg width="27" height="27" viewBox="0 0 27 27" fill="none" xmlns="http://www.w3.org/2000/svg">
<g clip-path="url(#clip0_108_2235)">
<path fill-rule="evenodd" clip-rule="evenodd" d="M13.5357 26.4816C20.8484 26.4816 26.7765 20.5535 26.7765 13.2408C26.7765 5.92811 20.8484 0 13.5357 0C6.22303 0 0.294922 5.92811 0.294922 13.2408C0.294922 20.5535 6.22303 26.4816 13.5357 26.4816ZM14.4443 6.88907C13.778 6.90764 13.0749 7.06804 12.5783 7.53991C12.1681 7.91929 11.9615 8.47145 11.9151 9.02341C11.9009 9.41819 11.903 9.81402 11.905 10.2097C11.9065 10.5064 11.908 10.803 11.9027 11.0991C11.7203 11.1004 11.5374 11.1001 11.3543 11.0997C11.1102 11.0992 10.866 11.0987 10.6227 11.1022C10.6227 11.3385 10.6231 11.575 10.6234 11.8118C10.6241 12.2861 10.6248 12.7613 10.6227 13.2365C10.866 13.2401 11.1102 13.2396 11.3543 13.2391C11.5374 13.2387 11.7203 13.2383 11.9027 13.2396C11.9068 14.1814 11.9061 15.1232 11.9053 16.0649C11.9044 17.2421 11.9034 18.4192 11.912 19.5964C12.4126 19.5928 12.9121 19.5933 13.4117 19.5938C13.7865 19.5942 14.1613 19.5946 14.5368 19.5933C14.5399 18.5338 14.5391 17.4751 14.5383 16.4165C14.5375 15.3577 14.5368 14.2991 14.5399 13.2396C14.7923 13.2383 15.0448 13.2387 15.2972 13.2391C15.6339 13.2396 15.9705 13.2401 16.3072 13.2365C16.412 12.5271 16.5014 11.8114 16.5507 11.0929C16.2177 11.0914 15.8846 11.0914 15.5515 11.0914C15.2184 11.0914 14.8853 11.0914 14.5522 11.0898C14.5522 10.9656 14.552 10.8415 14.5519 10.7173C14.5513 10.3449 14.5507 9.97259 14.5553 9.60012C14.6078 9.31322 14.9038 9.09422 15.1907 9.11278H16.5538C16.5569 8.36947 16.5569 7.62929 16.5538 6.88597C16.3781 6.88597 16.2023 6.88579 16.0266 6.8856C15.4992 6.88502 14.9717 6.88444 14.4443 6.88907Z" fill="#0E304E"/>
</g>
<defs>
<clipPath id="clip0_108_2235">
<rect width="26.4816" height="26.4816" fill="white" transform="translate(0.294922)"/>
</clipPath>
</defs>
</svg>
