<svg width="16" height="10" viewBox="0 0 16 10" fill="none" xmlns="http://www.w3.org/2000/svg">
<path d="M1.21448 0H14.7855C15.0257 5.56624e-05 15.2605 0.0773999 15.4603 0.222255C15.66 0.367111 15.8156 0.572974 15.9075 0.813819C15.9995 1.05466 16.0235 1.31968 15.9767 1.57536C15.9298 1.83103 15.8142 2.0659 15.6443 2.25026L8.85882 9.61403C8.63102 9.86117 8.3221 10 8 10C7.6779 10 7.36898 9.86117 7.14118 9.61403L0.355659 2.25026C0.185827 2.0659 0.0701766 1.83103 0.0233271 1.57536C-0.0235223 1.31968 0.000533418 1.05466 0.0924526 0.813819C0.184372 0.572974 0.340028 0.367111 0.539742 0.222255C0.739457 0.0773999 0.974264 5.56624e-05 1.21448 0Z" fill="#0E304E"/>
</svg>
